<svg xmlns="http://www.w3.org/2000/svg" width="20" height="20" viewBox="0 0 20 20">
  <defs>
    <style>
      .cls-1 {
        fill: #26272e;
        fill-rule: evenodd;
      }
    </style>
  </defs>
  <path id="Broadcast" class="cls-1" d="M280,1319a1,1,0,0,1-1-1v-3h-4a2,2,0,0,1-2-2v-12a2,2,0,0,1,2-2h16a2,2,0,0,1,2,2v12a2,2,0,0,1-2,2h-6.1l-3.7,3.71a1.019,1.019,0,0,1-.7.29H280m1-6v3.08l3.079-3.08H291v-12H275v12h6m7-5h-2v-2h2v2m-4,0h-2v-2h2v2m-4,0h-2v-2h2v2Z" transform="translate(-273 -1299)"/>
</svg>
