<svg xmlns="http://www.w3.org/2000/svg" width="21" height="20" viewBox="0 0 21 20">
  <defs>
    <style>
      .cls-1 {
        fill: #26272e;
        fill-rule: evenodd;
      }
    </style>
  </defs>
  <path id="Notification" class="cls-1" d="M411.017,1313v-6.5a4.506,4.506,0,0,0-9.011,0v6.5h9.011m2-1,2,2v1H398v-1l2-2v-5.5a6.5,6.5,0,0,1,5.007-6.32v-0.68a1.5,1.5,0,0,1,3,0v0.68a6.509,6.509,0,0,1,5.006,6.32v5.5m-6.508,6a2,2,0,0,1-2-2h4a2,2,0,0,1-2,2m8.481-12a8.4,8.4,0,0,0-3.555-6.42l1.432-1.43A10.45,10.45,0,0,1,417,1306h-2m-13.407-6.42A8.512,8.512,0,0,0,398,1306h-2a10.574,10.574,0,0,1,4.156-7.85Z" transform="translate(-396 -1298)"/>
</svg>
