<svg xmlns="http://www.w3.org/2000/svg" width="16" height="16" viewBox="0 0 16 16">
  <defs>
    <style>
      .cls-1 {
        fill: #b2b4c9;
        fill-rule: evenodd;
      }
    </style>
  </defs>
  <path id="format" class="cls-1" d="M5818.78,1468l1.21,4.64-1,.28a8.084,8.084,0,0,0-1.5-2.33,2.649,2.649,0,0,0-1.84-.46h-2.61v11.2a1.635,1.635,0,0,0,.35,1.34,3.343,3.343,0,0,0,1.74.26V1484h-6.26v-1.07a3.343,3.343,0,0,0,1.74-.26,1.635,1.635,0,0,0,.35-1.34v-11.2h-2.61a2.649,2.649,0,0,0-1.84.46,8.084,8.084,0,0,0-1.5,2.33l-1-.28,1.21-4.64h13.56Z" transform="translate(-5804 -1468)"/>
</svg>
