<svg xmlns="http://www.w3.org/2000/svg" width="20.56" height="20.562" viewBox="0 0 20.56 20.562">
  <defs>
    <style>
      .cls-1 {
        fill: none;
        stroke: #b2b4c9;
        stroke-width: 2px;
        fill-rule: evenodd;
      }
    </style>
  </defs>
  <path id="settings" class="cls-1" d="M2596,666.249a3.251,3.251,0,1,1,3.34-3.249,3.3,3.3,0,0,1-3.34,3.249m7.09-2.349a6.7,6.7,0,0,0,.07-0.9,7.385,7.385,0,0,0-.07-0.929l2.02-1.513a0.465,0.465,0,0,0,.11-0.594l-1.91-3.212a0.471,0.471,0,0,0-.58-0.2l-2.38.929a6.845,6.845,0,0,0-1.61-.91l-0.35-2.46a0.482,0.482,0,0,0-.48-0.39h-3.82a0.464,0.464,0,0,0-.47.39l-0.36,2.46a7.051,7.051,0,0,0-1.61.91l-2.38-.929a0.475,0.475,0,0,0-.58.2l-1.91,3.212a0.456,0.456,0,0,0,.12.594l2.01,1.513a7.385,7.385,0,0,0-.07.929,6.7,6.7,0,0,0,.07.9l-2.01,1.541a0.458,0.458,0,0,0-.12.595l1.91,3.212a0.486,0.486,0,0,0,.58.2l2.38-.937a6.793,6.793,0,0,0,1.61.919l0.36,2.46a0.464,0.464,0,0,0,.47.39h3.82a0.482,0.482,0,0,0,.48-0.39l0.35-2.46a6.908,6.908,0,0,0,1.61-.919l2.38,0.937a0.482,0.482,0,0,0,.58-0.2l1.91-3.212a0.467,0.467,0,0,0-.11-0.595Z" transform="translate(-2585.72 -652.719)"/>
</svg>
