<svg xmlns="http://www.w3.org/2000/svg" width="21.281" height="23.75" viewBox="0 0 21.281 23.75">
  <defs>
    <style>
      .cls-1 {
        fill: #b2b4c9;
        fill-rule: evenodd;
      }
    </style>
  </defs>
  <path id="attachment" class="cls-1" d="M289.088,4654.64a7.264,7.264,0,1,1,10.276,10.27l-9.81,9.81a5.283,5.283,0,1,1-7.473-7.47l7.94-7.94a3.3,3.3,0,0,1,4.672,4.67l-7.007,7.01-1.4-1.41,7.008-7a1.322,1.322,0,0,0-1.869-1.87l-7.941,7.94a3.3,3.3,0,1,0,4.671,4.67l9.81-9.81a5.284,5.284,0,1,0-7.474-7.47l-8.876,8.87-1.4-1.4Z" transform="translate(-280.219 -4652.53)"/>
</svg>
