<svg xmlns="http://www.w3.org/2000/svg" width="21.28" height="23.75" viewBox="0 0 21.28 23.75">
  <defs>
    <style>
      .cls-1 {
        fill: #b2b4c9;
        fill-rule: evenodd;
      }
    </style>
  </defs>
  <path id="attachment" class="cls-1" d="M7417.09,4556.64a7.262,7.262,0,1,1,10.27,10.27l-9.81,9.81a5.282,5.282,0,0,1-7.47-7.47l7.94-7.94a3.3,3.3,0,0,1,4.67,4.67l-7,7.01-1.41-1.41,7.01-7a1.322,1.322,0,0,0-1.87-1.87l-7.94,7.94a3.3,3.3,0,0,0,4.67,4.67l9.81-9.81a5.282,5.282,0,1,0-7.47-7.47l-8.88,8.87-1.4-1.4Z" transform="translate(-7408.22 -4554.53)"/>
</svg>
