<svg xmlns="http://www.w3.org/2000/svg" width="20" height="20" viewBox="0 0 20 20">
  <defs>
    <style>
      .cls-1 {
        fill: #b2b4c9;
        fill-rule: evenodd;
      }
    </style>
  </defs>
  <path id="earcth" class="cls-1" d="M4381.9,2784.39a2.006,2.006,0,0,0-1.9-1.39h-1v-3a1,1,0,0,0-1-1h-6v-2h2a1,1,0,0,0,1-1v-2h2a2.006,2.006,0,0,0,2-2v-0.41a7.982,7.982,0,0,1,2.9,12.8m-6.9,2.54a7.962,7.962,0,0,1-6.79-9.72L4373,2782v1a2.006,2.006,0,0,0,2,2m1-16a10,10,0,1,0,10,10A10,10,0,0,0,4376,2769Z" transform="translate(-4366 -2769)"/>
</svg>
