<svg xmlns="http://www.w3.org/2000/svg" width="17" height="16" viewBox="0 0 17 16">
  <defs>
    <style>
      .cls-1 {
        fill: #26272e;
        fill-rule: evenodd;
      }
    </style>
  </defs>
  <path id="grid" class="cls-1" d="M3842,2507h-9.8a1,1,0,0,1,0-2h9.8A1,1,0,0,1,3842,2507Zm0,6h-9.8a1,1,0,0,1,0-2h9.8A1,1,0,0,1,3842,2513Zm0,6h-9.8a1,1,0,0,1,0-2h9.8A1,1,0,0,1,3842,2519Zm-14,1h0a2.006,2.006,0,0,1-2-2h0a2.006,2.006,0,0,1,2-2h0a2.006,2.006,0,0,1,2,2h0A2.006,2.006,0,0,1,3828,2520Zm0-6h0a2.006,2.006,0,0,1-2-2h0a2.006,2.006,0,0,1,2-2h0a2.006,2.006,0,0,1,2,2h0A2.006,2.006,0,0,1,3828,2514Zm0-6h0a2.006,2.006,0,0,1-2-2h0a2.006,2.006,0,0,1,2-2h0a2.006,2.006,0,0,1,2,2h0A2.006,2.006,0,0,1,3828,2508Z" transform="translate(-3826 -2504)"/>
</svg>
