<svg xmlns="http://www.w3.org/2000/svg" width="18" height="25" viewBox="0 0 18 25">
  <defs>
    <style>
      .cls-1 {
        fill: #b2b4c9;
        fill-rule: evenodd;
      }
    </style>
  </defs>
  <path id="microphone" class="cls-1" d="M9,0a3.9,3.9,0,0,1,3.857,3.947v7.895A3.9,3.9,0,0,1,9,15.789a3.9,3.9,0,0,1-3.857-3.948V3.947A3.9,3.9,0,0,1,9,0m9,11.842a9.151,9.151,0,0,1-7.714,9.119V25H7.714V20.96A9.152,9.152,0,0,1,0,11.841H2.571A6.5,6.5,0,0,0,9,18.42a6.5,6.5,0,0,0,6.429-6.579H18Z"/>
</svg>
