<svg xmlns="http://www.w3.org/2000/svg" width="42" height="52" viewBox="0 0 42 52">
  <defs>
    <style>
      .cls-1 {
        fill: #b2b4c9;
        fill-rule: evenodd;
      }
    </style>
  </defs>
  <path id="Music" class="cls-1" d="M2771.62,2669.2h14.44l-14.44-14.3v14.3m-18.37-18.2h21l15.75,15.6v31.2a5.226,5.226,0,0,1-5.25,5.2h-31.5a5.226,5.226,0,0,1-5.25-5.2v-41.6a5.207,5.207,0,0,1,5.25-5.2m7.87,36.4a5.2,5.2,0,1,0,5.25,5.2v-13h7.88v-5.2h-10.5v13.7A5.3,5.3,0,0,0,2761.12,2687.4Z" transform="translate(-2748 -2651)"/>
</svg>
