<svg xmlns="http://www.w3.org/2000/svg" width="16" height="16" viewBox="0 0 16 16">
  <defs>
    <style>
      .cls-1 {
        fill: #b2b4c9;
        fill-rule: evenodd;
      }
    </style>
  </defs>
  <path id="name" class="cls-1" d="M4112,2780c-2.67,0-8,1.33-8,4v3h16v-3c0-2.67-5.33-4-8-4m0-9a4,4,0,1,0,4,4,4,4,0,0,0-4-4m0,10.9c2.97,0,6.1,1.46,6.1,2.1v1.1h-12.2V2784c0-.64,3.1-2.1,6.1-2.1m0-9a2.1,2.1,0,0,1,2.1,2.1h0a2.1,2.1,0,0,1-2.1,2.1h0a2.1,2.1,0,0,1-2.1-2.1h0a2.1,2.1,0,0,1,2.1-2.1h0Z" transform="translate(-4104 -2771)"/>
</svg>
