<svg xmlns="http://www.w3.org/2000/svg" width="22.91" height="17" viewBox="0 0 22.91 17">
  <defs>
    <style>
      .cls-1 {
        fill: #26272e;
        fill-rule: evenodd;
      }
    </style>
  </defs>
  <path id="sort" class="cls-1" d="M3881.13,2516.25a0.976,0.976,0,0,0-1.4-.06l-1.71,1.81v-13a1,1,0,0,0-2,0v13l-1.28-1.78a1,1,0,0,0-1.41-.01,1.017,1.017,0,0,0-.01,1.42l3.03,3.07a0.992,0.992,0,0,0,.71.3,1.008,1.008,0,0,0,.67-0.26l3.34-3.08A0.988,0.988,0,0,0,3881.13,2516.25Zm14.82-9.25H3883v-2h12.95v2Zm-3.99,6H3883v-2h8.96v2Zm-4.98,6H3883v-2h3.98v2Z" transform="translate(-3873.03 -2504)"/>
</svg>
