<svg xmlns="http://www.w3.org/2000/svg" width="18" height="18" viewBox="0 0 18 18">
  <defs>
    <style>
      .cls-1 {
        fill: #b2b4c9;
        fill-rule: evenodd;
      }
    </style>
  </defs>
  <path id="source" class="cls-1" d="M4383.99,2837.99H4368a1,1,0,0,0-1,1v6a1.009,1.009,0,0,0,1,1h15.99a1.009,1.009,0,0,0,1-1v-6A1,1,0,0,0,4383.99,2837.99Zm-12.99,6a2,2,0,1,1,2-2A2.006,2.006,0,0,1,4371,2843.99Zm12.99-16H4368a1,1,0,0,0-1,1v6a1,1,0,0,0,1,1h15.99a1,1,0,0,0,1-1v-6A1,1,0,0,0,4383.99,2827.99Zm-12.99,6a2,2,0,1,1,2-2A2.006,2.006,0,0,1,4371,2833.99Z" transform="translate(-4367 -2828)"/>
</svg>
