<svg xmlns="http://www.w3.org/2000/svg" width="16" height="17" viewBox="0 0 16 17">
  <defs>
    <style>
      .cls-1 {
        fill: #26272e;
        fill-rule: evenodd;
      }
    </style>
  </defs>
  <path id="upload" class="cls-1" d="M3795,2515.93a1,1,0,0,0-1,1V2519h-12v-2.07a1,1,0,0,0-2,0V2520a1,1,0,0,0,1,1h14a1,1,0,0,0,1-1v-3.07A1,1,0,0,0,3795,2515.93Zm-10.3-6.33,2.32-2.24v9.57a1,1,0,0,0,2,0v-9.57l2.33,2.24a0.968,0.968,0,0,0,.69.28,1,1,0,0,0,.69-1.72l-4-3.87h0l-0.01-.01c-0.04-.03-0.08-0.05-0.12-0.08a2.116,2.116,0,0,0-.2-0.12,1.108,1.108,0,0,0-.36-0.08H3788a1.168,1.168,0,0,0-.36.08,1.223,1.223,0,0,0-.19.12,1.249,1.249,0,0,0-.12.08l-0.01.01h-0.01l-4,3.87A1,1,0,1,0,3784.7,2509.6Z" transform="translate(-3780 -2504)"/>
</svg>
